HIERARCHY
ROOT Hips
{
  OFFSET 5.72205e-005 65.662 3.42586
  CHANNELS 6 Xposition Yposition Zposition Zrotation Xrotation Yrotation
  JOINT Chest
  {
    OFFSET 0 8.7983 -4.7612
    CHANNELS 6 Xposition Yposition Zposition Zrotation Xrotation Yrotation
    JOINT Chest2
    {
      OFFSET 0 8.0291 0.4195
      CHANNELS 6 Xposition Yposition Zposition Zrotation Xrotation Yrotation
      JOINT Chest3
      {
        OFFSET 0 9.9351 -2.2114
        CHANNELS 6 Xposition Yposition Zposition Zrotation Xrotation Yrotation
        JOINT Neck
        {
          OFFSET 0 22.3885 -0.4656
          CHANNELS 6 Xposition Yposition Zposition Zrotation Xrotation Yrotation
          JOINT Head
          {
            OFFSET -0.0001 12.643 3.4389
            CHANNELS 6 Xposition Yposition Zposition Zrotation Xrotation Yrotation
            End Site
            {
              OFFSET 0.0001 17.6655 0.5274
            }
          }
        }
        JOINT LeftCollar
        {
          OFFSET 2.2603 21.606 7.4023
          CHANNELS 6 Xposition Yposition Zposition Zrotation Xrotation Yrotation
          JOINT LeftShoulder
          {
            OFFSET 13.5163 -1.1332 -5.0146
            CHANNELS 6 Xposition Yposition Zposition Zrotation Xrotation Yrotation
            JOINT LeftElbow
            {
              OFFSET -0.0995 -28.05 -0.2431
              CHANNELS 6 Xposition Yposition Zposition Zrotation Xrotation Yrotation
              JOINT LeftWrist
              {
                OFFSET 0.0679 -23.3996 -0.1402
                CHANNELS 6 Xposition Yposition Zposition Zrotation Xrotation Yrotation
                JOINT LeftFinger1
                {
                  OFFSET 0.7932 -9.069 2.5189
                  CHANNELS 6 Xposition Yposition Zposition Zrotation Xrotation Yrotation
                  JOINT LeftFinger11
                  {
                    OFFSET -0.8272 -3.3923 0.5977
                    CHANNELS 6 Xposition Yposition Zposition Zrotation Xrotation Yrotation
                    JOINT LeftFinger12
                    {
                      OFFSET -0.5649 -2.3158 0.4082
                      CHANNELS 6 Xposition Yposition Zposition Zrotation Xrotation Yrotation
                      End Site
                      {
                        OFFSET -0.4919 -1.6479 0.2673
                      }
                    }
                  }
                }
                JOINT LeftFinger2
                {
                  OFFSET 0.9159 -9.2044 0.2193
                  CHANNELS 6 Xposition Yposition Zposition Zrotation Xrotation Yrotation
                  JOINT LeftFinger21
                  {
                    OFFSET 0.0117 -4.1944 -0.0248
                    CHANNELS 6 Xposition Yposition Zposition Zrotation Xrotation Yrotation
                    JOINT LeftFinger22
                    {
                      OFFSET 0.0071 -2.3249 -0.0142
                      CHANNELS 6 Xposition Yposition Zposition Zrotation Xrotation Yrotation
                      End Site
                      {
                        OFFSET -0.1475 -2.0882 0.0028
                      }
                    }
                  }
                }
                JOINT LeftFinger3
                {
                  OFFSET 0.6113 -8.7231 -2.0637
                  CHANNELS 6 Xposition Yposition Zposition Zrotation Xrotation Yrotation
                  JOINT LeftFinger31
                  {
                    OFFSET -0.1927 -3.8059 -0.2383
                    CHANNELS 6 Xposition Yposition Zposition Zrotation Xrotation Yrotation
                    JOINT LeftFinger32
                    {
                      OFFSET -0.1091 -2.1688 -0.1362
                      CHANNELS 6 Xposition Yposition Zposition Zrotation Xrotation Yrotation
                      End Site
                      {
                        OFFSET -0.2358 -1.9176 -0.0906
                      }
                    }
                  }
                }
                JOINT LeftFinger4
                {
                  OFFSET -0.6151 -8.0947 -3.5641
                  CHANNELS 6 Xposition Yposition Zposition Zrotation Xrotation Yrotation
                  JOINT LeftFinger41
                  {
                    OFFSET -0.4882 -2.341 -0.6462
                    CHANNELS 6 Xposition Yposition Zposition Zrotation Xrotation Yrotation
                    JOINT LeftFinger42
                    {
                      OFFSET -0.3575 -1.7167 -0.4742
                      CHANNELS 6 Xposition Yposition Zposition Zrotation Xrotation Yrotation
                      End Site
                      {
                        OFFSET -0.4187 -1.5237 -0.3496
                      }
                    }
                  }
                }
                JOINT LeftFinger0
                {
                  OFFSET -1.42 -1.8761 1.4223
                  CHANNELS 6 Xposition Yposition Zposition Zrotation Xrotation Yrotation
                  JOINT LeftFinger01
                  {
                    OFFSET -1.1471 -3.4929 2.6334
                    CHANNELS 6 Xposition Yposition Zposition Zrotation Xrotation Yrotation
                    JOINT LeftFinger02
                    {
                      OFFSET -0.823 -2.3 1.6571
                      CHANNELS 6 Xposition Yposition Zposition Zrotation Xrotation Yrotation
                      End Site
                      {
                        OFFSET -0.5822 -1.6914 1.1582
                      }
                    }
                  }
                }
              }
            }
          }
        }
        JOINT RightCollar
        {
          OFFSET -2.2603 21.606 7.4023
          CHANNELS 6 Xposition Yposition Zposition Zrotation Xrotation Yrotation
          JOINT RightShoulder
          {
            OFFSET -13.5187 -1.1334 -5.0155
            CHANNELS 6 Xposition Yposition Zposition Zrotation Xrotation Yrotation
            JOINT RightElbow
            {
              OFFSET 0.0994 -28.0499 -0.2431
              CHANNELS 6 Xposition Yposition Zposition Zrotation Xrotation Yrotation
              JOINT RightWrist
              {
                OFFSET -0.0679 -23.3996 -0.1402
                CHANNELS 6 Xposition Yposition Zposition Zrotation Xrotation Yrotation
                JOINT RightFinger1
                {
                  OFFSET -0.7932 -9.0691 2.5189
                  CHANNELS 6 Xposition Yposition Zposition Zrotation Xrotation Yrotation
                  JOINT RightFinger11
                  {
                    OFFSET 0.8272 -3.3923 0.5977
                    CHANNELS 6 Xposition Yposition Zposition Zrotation Xrotation Yrotation
                    JOINT RightFinger12
                    {
                      OFFSET 0.565 -2.3158 0.4082
                      CHANNELS 6 Xposition Yposition Zposition Zrotation Xrotation Yrotation
                      End Site
                      {
                        OFFSET 0.4919 -1.6479 0.2673
                      }
                    }
                  }
                }
                JOINT RightFinger2
                {
                  OFFSET -0.916 -9.2044 0.2193
                  CHANNELS 6 Xposition Yposition Zposition Zrotation Xrotation Yrotation
                  JOINT RightFinger21
                  {
                    OFFSET -0.0117 -4.1944 -0.0248
                    CHANNELS 6 Xposition Yposition Zposition Zrotation Xrotation Yrotation
                    JOINT RightFinger22
                    {
                      OFFSET -0.0071 -2.3249 -0.0142
                      CHANNELS 6 Xposition Yposition Zposition Zrotation Xrotation Yrotation
                      End Site
                      {
                        OFFSET 0.1475 -2.0882 0.0028
                      }
                    }
                  }
                }
                JOINT RightFinger3
                {
                  OFFSET -0.6113 -8.7231 -2.0637
                  CHANNELS 6 Xposition Yposition Zposition Zrotation Xrotation Yrotation
                  JOINT RightFinger31
                  {
                    OFFSET 0.1927 -3.8059 -0.2383
                    CHANNELS 6 Xposition Yposition Zposition Zrotation Xrotation Yrotation
                    JOINT RightFinger32
                    {
                      OFFSET 0.1091 -2.1688 -0.1362
                      CHANNELS 6 Xposition Yposition Zposition Zrotation Xrotation Yrotation
                      End Site
                      {
                        OFFSET 0.2358 -1.9176 -0.0906
                      }
                    }
                  }
                }
                JOINT RightFinger4
                {
                  OFFSET 0.6151 -8.0947 -3.564
                  CHANNELS 6 Xposition Yposition Zposition Zrotation Xrotation Yrotation
                  JOINT RightFinger41
                  {
                    OFFSET 0.4882 -2.341 -0.6462
                    CHANNELS 6 Xposition Yposition Zposition Zrotation Xrotation Yrotation
                    JOINT RightFinger42
                    {
                      OFFSET 0.3574 -1.7166 -0.4742
                      CHANNELS 6 Xposition Yposition Zposition Zrotation Xrotation Yrotation
                      End Site
                      {
                        OFFSET 0.4187 -1.5237 -0.3496
                      }
                    }
                  }
                }
                JOINT RightFinger0
                {
                  OFFSET 1.4199 -1.8761 1.4221
                  CHANNELS 6 Xposition Yposition Zposition Zrotation Xrotation Yrotation
                  JOINT RightFinger01
                  {
                    OFFSET 1.1472 -3.4929 2.6336
                    CHANNELS 6 Xposition Yposition Zposition Zrotation Xrotation Yrotation
                    JOINT RightFinger02
                    {
                      OFFSET 0.8229 -2.3 1.6571
                      CHANNELS 6 Xposition Yposition Zposition Zrotation Xrotation Yrotation
                      End Site
                      {
                        OFFSET 0.5822 -1.6914 1.1582
                      }
                    }
                  }
                }
              }
            }
          }
        }
      }
    }
  }
  JOINT RightHip
  {
    OFFSET -9.412 3.9771 -0.7758
    CHANNELS 6 Xposition Yposition Zposition Zrotation Xrotation Yrotation
    JOINT RightKnee
    {
      OFFSET -0.7531 -40.938 0
      CHANNELS 6 Xposition Yposition Zposition Zrotation Xrotation Yrotation
      JOINT RightAnkle
      {
        OFFSET 0 -40.1986 0
        CHANNELS 6 Xposition Yposition Zposition Zrotation Xrotation Yrotation
        JOINT RightToe
        {
          OFFSET 0 -4.4182 9.239
          CHANNELS 6 Xposition Yposition Zposition Zrotation Xrotation Yrotation
          End Site
          {
            OFFSET 0 0 6.1981
          }
        }
      }
    }
  }
  JOINT LeftHip
  {
    OFFSET 9.4119 3.9773 -0.7758
    CHANNELS 6 Xposition Yposition Zposition Zrotation Xrotation Yrotation
    JOINT LeftKnee
    {
      OFFSET 0.7532 -40.9383 0
      CHANNELS 6 Xposition Yposition Zposition Zrotation Xrotation Yrotation
      JOINT LeftAnkle
      {
        OFFSET 0 -40.1986 0
        CHANNELS 6 Xposition Yposition Zposition Zrotation Xrotation Yrotation
        JOINT LeftToe
        {
          OFFSET 0 -4.4182 9.239
          CHANNELS 6 Xposition Yposition Zposition Zrotation Xrotation Yrotation
          End Site
          {
            OFFSET 0 0 6.1981
          }
        }
      }
    }
  }
}
MOTION
Frames:	4
Frame Time:	0.0333333
5.72205e-005 65.662 3.42586 0 0 -0 0 8.7983 -4.7612 0 0 -0 0 8.0291 0.4195 0 0 -0 0 9.9351 -2.2114 0 0 -0 0 22.3885 -0.4656 0 0 -0 -0.0001 12.643 3.4389 0 0 -0 2.2603 21.606 7.4023 0 0 -12.5014 13.5163 -1.1332 -5.0146 88.1196 14.2451 10.6914 -0.0995 -28.05 -0.2431 -0.00160068 -0.00239207 0.000740045 0.0679 -23.3996 -0.1402 -8.4365e-005 7.00714e-005 -9.52055e-007 0.7932 -9.069 2.5189 9.93923e-017 -1.98785e-016 -1.59028e-015 -0.8272 -3.3923 0.5977 9.93923e-017 -5.96354e-016 -1.59028e-015 -0.5649 -2.3158 0.4082 -9.93923e-017 -5.96354e-016 -1.59028e-015 0.9159 -9.2044 0.2193 9.93923e-017 -1.98785e-016 -1.59028e-015 0.0117 -4.1944 -0.0248 -0.0128176 0.00232552 8.52707e-005 0.0071 -2.3249 -0.0142 9.93923e-017 5.96354e-016 -0 0.6113 -8.7231 -2.0637 9.93923e-017 -1.98785e-016 -1.59028e-015 -0.1927 -3.8059 -0.2383 -0.0160551 0.00299681 0.000857156 -0.1091 -2.1688 -0.1362 -2.48481e-016 0 3.18055e-015 -0.6151 -8.0947 -3.5641 9.93923e-017 -1.98785e-016 -1.59028e-015 -0.4882 -2.341 -0.6462 -0.0125865 0.0031206 0.00282719 -0.3575 -1.7167 -0.4742 0 1.98785e-016 -0 -1.42 -1.8761 1.4223 9.93923e-017 -1.98785e-016 -1.59028e-015 -1.1471 -3.4929 2.6334 9.93923e-017 -5.96354e-016 -1.59028e-015 -0.823 -2.3 1.6571 -9.93923e-017 -5.96354e-016 -1.59028e-015 -2.2603 21.606 7.4023 -0.865644 0.16582 7.03859 -13.5187 -1.1334 -5.0155 -88.0329 10.2057 -10.5567 0.0994 -28.0499 -0.2431 0.0015593 -0.00248883 -0.000788628 -0.0679 -23.3996 -0.1402 7.87605e-005 4.10553e-005 1.24965e-005 -0.7932 -9.0691 2.5189 -3.97569e-016 -7.95139e-016 3.18055e-015 0.8272 -3.3923 0.5977 -1.98785e-016 -3.97569e-016 3.18055e-015 0.565 -2.3158 0.4082 -1.98785e-016 0 3.18055e-015 -0.916 -9.2044 0.2193 -3.97569e-016 -7.95139e-016 3.18055e-015 -0.0117 -4.1944 -0.0248 0.0129473 0.00231697 -8.70038e-005 -0.0071 -2.3249 -0.0142 9.93923e-017 -7.95139e-016 1.59028e-015 -0.6113 -8.7231 -2.0637 -3.97569e-016 -7.95139e-016 3.18055e-015 0.1927 -3.8059 -0.2383 0.0163314 0.00303369 -0.000872333 0.1091 -2.1688 -0.1362 3.97569e-016 7.95139e-016 -3.18055e-015 0.6151 -8.0947 -3.564 -3.97569e-016 -7.95139e-016 3.18055e-015 0.4882 -2.341 -0.6462 0.0145763 0.00367772 -0.00326275 0.3574 -1.7166 -0.4742 9.93923e-017 -3.97569e-016 -0 1.4199 -1.8761 1.4221 -3.97569e-016 -7.95139e-016 3.18055e-015 1.1472 -3.4929 2.6336 -1.98785e-016 -3.97569e-016 3.18055e-015 0.8229 -2.3 1.6571 -1.98785e-016 0 3.18055e-015 -9.412 3.9771 -0.7758 3.42482 1.32465 -0.0626183 -0.7531 -40.938 0 0.000117508 0.717283 0.000978199 0 -40.1986 0 -3.4257 -2.04197 -0.0604716 8.88178e-016 -4.4182 9.239 6.47761e-025 0 -0 9.4119 3.9773 -0.7758 -3.42483 1.34017 0.0627307 0.7532 -40.9383 -2.22045e-016 -0.000193936 0.682302 -0.0013703 -8.88179e-016 -40.1986 0 3.42574 -2.02253 0.0595886 -8.88178e-016 -4.4182 9.239 -8.45714e-024 0 -7.40531e-025 
9.82411 23.3203 22.3752 -2.22083 0.004415 -116.345 3.55271e-015 8.7983 -4.7612 -1.16724 8.07891 1.35959 0 8.0291 0.4195 -2.56884 16.1255 2.9314 0 9.9351 -2.2114 -2.56885 16.1256 2.93141 -3.55271e-015 22.3885 -0.4656 -0.00421802 -28.1706 -0.00133012 -0.0001 12.643 3.4389 -0.0123506 -22.9902 -0.00522295 2.2603 21.606 7.4023 -16.1201 -9.40064 -22.9217 13.5163 -1.1332 -5.0146 60.7923 3.61283 13.0653 -0.0995 -28.05 -0.2431 17.8975 -21.6304 5.32079 0.0679 -23.3996 -0.1402 -12.1272 -2.48637 -1.52189 0.7932 -9.069 2.5189 -5.48771e-007 -4.93348e-006 4.70205e-006 -0.8272 -3.3923 0.5977 6.36111e-015 0 -0 -0.5649 -2.3158 0.4082 4.7463e-006 1.06452e-006 -2.36558e-006 0.9159 -9.2044 0.2193 -5.48771e-007 -4.93348e-006 4.70205e-006 0.0117 -4.1944 -0.0248 -0.0128457 0.0023298 8.21034e-005 0.0071 -2.3249 -0.0142 6.36111e-015 -1.06628e-008 3.18055e-015 0.6113 -8.7231 -2.0637 -5.48771e-007 -4.93348e-006 4.70205e-006 -0.1927 -3.8059 -0.2383 -0.016055 0.0029948 0.000851517 -0.1091 -2.1688 -0.1362 2.56405e-006 5.93487e-007 -9.34082e-008 -0.6151 -8.0947 -3.5641 -5.48771e-007 -4.93348e-006 4.70205e-006 -0.4882 -2.341 -0.6462 -0.0125691 0.0031197 0.00282437 -0.3575 -1.7167 -0.4742 -1.5782e-005 6.827e-006 -7.04256e-006 -1.42 -1.8761 1.4223 -5.48771e-007 -4.93348e-006 4.70205e-006 -1.1471 -3.4929 2.6334 6.36111e-015 0 -0 -0.823 -2.3 1.6571 4.7463e-006 1.06452e-006 -2.36558e-006 -2.2603 21.606 7.4023 16.8363 -1.65649 26.6219 -13.5187 -1.1334 -5.0155 -60.1039 -13.7807 -2.67976 0.0994 -28.0499 -0.2431 -10.6229 -22.3552 -3.1476 -0.0679 -23.3996 -0.1402 -24.0857 -3.87924 -2.20217 -0.7932 -9.0691 2.5189 2.64834e-031 9.54166e-015 -1.59028e-015 0.8272 -3.3923 0.5977 3.18055e-015 3.18055e-015 -0 0.565 -2.3158 0.4082 9.54166e-015 9.54166e-015 -0 -0.916 -9.2044 0.2193 2.64834e-031 9.54166e-015 -1.59028e-015 -0.0117 -4.1944 -0.0248 0.0129381 0.00231548 -8.37279e-005 -0.0071 -2.3249 -0.0142 5.91344e-006 1.32239e-006 -5.12024e-006 -0.6113 -8.7231 -2.0637 2.64834e-031 9.54166e-015 -1.59028e-015 0.1927 -3.8059 -0.2383 0.0163133 0.00304164 -0.000875537 0.1091 -2.1688 -0.1362 7.55599e-006 -5.11396e-006 4.28267e-006 0.6151 -8.0947 -3.564 2.64834e-031 9.54166e-015 -1.59028e-015 0.4882 -2.341 -0.6462 0.0145509 0.00366705 -0.00326041 0.3574 -1.7166 -0.4742 3.18055e-015 9.54166e-015 -1.59028e-015 1.4199 -1.8761 1.4221 2.64834e-031 9.54166e-015 -1.59028e-015 1.1472 -3.4929 2.6336 3.18055e-015 3.18055e-015 -0 0.8229 -2.3 1.6571 9.54166e-015 9.54166e-015 -0 -9.412 3.9771 -0.7758 -2.02163 -42.0978 -37.5076 -0.7531 -40.938 -1.9984e-015 -160.957 51.9772 -179.239 -2.66454e-015 -40.1986 -3.55271e-015 -8.12413 17.4993 8.54305 0 -4.4182 9.239 6.42182e-006 5.22612e-006 -4.0894e-006 9.4119 3.9773 -0.7758 1.97922 -42.0948 37.523 0.7532 -40.9383 0 160.975 51.9491 179.251 0 -40.1986 -1.77636e-015 8.15216 17.4755 -8.52328 0 -4.4182 9.239 6.36111e-015 -6.36111e-015 -3.18055e-015 
17.6996 4.2106 31.6999 -3.21012 0.01414 -168.7 -1.77636e-015 8.7983 -4.7612 -2.48682 11.1643 1.84389 0 8.0291 0.4195 -5.5073 22.2283 4.31674 1.77636e-015 9.9351 -2.2114 -5.50729 22.2283 4.31674 0 22.3885 -0.4656 0.0161362 -40.7429 0.00529919 -0.0001 12.643 3.4389 0.0470903 -33.2112 0.0201195 2.2603 21.606 7.4023 -24.7241 -13.5149 -27.8457 13.5163 -1.1332 -5.0146 49.4322 -1.81752 13.7314 -0.0995 -28.05 -0.2431 25.9154 -30.9983 7.58215 0.0679 -23.3996 -0.1402 -17.5824 -3.60542 -2.07347 0.7932 -9.06901 2.5189 -4.16594e-006 6.43397e-007 1.52287e-006 -0.8272 -3.3923 0.5977 9.64537e-008 -8.42548e-007 6.32981e-007 -0.5649 -2.3158 0.4082 6.75868e-015 4.77083e-015 -1.59028e-015 0.9159 -9.20441 0.2193 -4.16594e-006 6.43397e-007 1.52287e-006 0.0117 -4.1944 -0.0248 -0.0128285 0.00232435 8.51767e-005 0.0071 -2.3249 -0.0142 3.21421e-008 -8.4447e-007 2.10995e-007 0.6113 -8.72311 -2.0637 -4.16594e-006 6.43397e-007 1.52287e-006 -0.1927 -3.8059 -0.2383 -0.0160689 0.00299662 0.000856748 -0.1091 -2.1688 -0.1362 1.60697e-008 -8.44472e-007 1.05498e-007 -0.6151 -8.09471 -3.5641 -4.16594e-006 6.43397e-007 1.52287e-006 -0.4882 -2.341 -0.6462 -0.012563 0.0031183 0.00282126 -0.3575 -1.7167 -0.4742 -4.34232e-006 1.47662e-006 3.62062e-007 -1.42 -1.8761 1.4223 -4.16594e-006 6.43397e-007 1.52287e-006 -1.1471 -3.4929 2.6334 9.64537e-008 -8.42548e-007 6.32981e-007 -0.823 -2.3 1.6571 6.75868e-015 4.77083e-015 -1.59028e-015 -2.2603 21.606 7.4023 25.1675 -2.20121 35.3797 -13.5187 -1.1334 -5.0155 -48.7303 -25.1021 0.629299 0.0994 -28.0499 -0.2431 -15.286 -32.3235 -4.15493 -0.0679 -23.3996 -0.1402 -35.133 -5.32892 -3.71108 -0.7932 -9.0691 2.5189 3.89426e-007 8.57617e-007 -2.32551e-006 0.8272 -3.3923 0.5977 6.23886e-006 -3.0775e-006 -2.65589e-006 0.565 -2.3158 0.4082 2.88189e-006 -7.60788e-007 1.18178e-006 -0.916 -9.2044 0.2193 3.89426e-007 8.57617e-007 -2.32551e-006 -0.0117 -4.1944 -0.0248 0.012939 0.00231895 -9.01649e-005 -0.0071 -2.3249 -0.0142 -8.46444e-023 1.52482e-006 3.18055e-015 -0.6113 -8.7231 -2.0637 3.89426e-007 8.57617e-007 -2.32551e-006 0.1927 -3.8059 -0.2383 0.0163207 0.00303133 -0.000871072 0.1091 -2.1688 -0.1362 3.18055e-015 -6.36111e-015 1.59028e-015 0.6151 -8.0947 -3.564 3.89426e-007 8.57617e-007 -2.32551e-006 0.4882 -2.341 -0.6462 0.0145901 0.00367671 -0.003266 0.3574 -1.7166 -0.4742 9.54166e-015 0 -7.95139e-015 1.4199 -1.8761 1.4221 3.89426e-007 8.57617e-007 -2.32551e-006 1.1472 -3.4929 2.6336 6.23886e-006 -3.0775e-006 -2.65589e-006 0.8229 -2.3 1.6571 2.88189e-006 -7.60788e-007 1.18178e-006 -9.412 3.9771 -0.7758 -39.5684 -50.7003 -56.7108 -0.7531 -40.938 4.44089e-015 -152.693 5.2086 -171.987 0 -40.1986 5.32907e-015 -19.2777 31.1756 26.3024 0 -4.4182 9.239 9.90718e-007 -3.92846e-007 1.38965e-006 9.4119 3.9773 -0.7758 39.5923 -50.6327 56.6931 0.7532 -40.9383 2.66453e-015 152.858 5.17094 171.989 0 -40.1986 -1.77636e-015 19.5411 31.1263 -26.3446 0 -4.4182 9.239 -5.13281e-006 1.24708e-006 1.0847e-005 
15.8218 8.44467 29.1795 -2.99134 0.0123804 -157.066 -1.77636e-015 8.7983 -4.7612 -2.16001 10.5159 1.75326 0 8.0291 0.4195 -4.776 20.9505 4.02014 0 9.9351 -2.2114 -4.77601 20.9505 4.02015 -1.77636e-015 22.3885 -0.4656 0.0607426 -37.7163 0.0197226 -0.0001 12.643 3.4389 0.177636 -30.663 0.075335 2.2603 21.606 7.4023 -23.2195 -12.9224 -26.7618 13.5163 -1.1332 -5.0146 52.5462 -0.181679 13.5244 -0.0995 -28.05 -0.2431 23.6453 -28.5286 6.87097 0.0679 -23.3996 -0.1402 -16.3708 -3.35599 -1.95805 0.7932 -9.069 2.5189 2.71838e-014 -5.96354e-015 -1.59028e-015 -0.8272 -3.3923 0.5977 2.72832e-014 -2.38542e-015 -1.59028e-015 -0.5649 -2.3158 0.4082 2.72335e-014 -3.97569e-015 -0 0.9159 -9.2044 0.2193 2.71838e-014 -5.96354e-015 -1.59028e-015 0.0117 -4.1944 -0.0248 -0.0128432 0.00233 8.58193e-005 0.0071 -2.3249 -0.0142 -3.926e-015 0 -1.59028e-015 0.6113 -8.7231 -2.0637 2.71838e-014 -5.96354e-015 -1.59028e-015 -0.1927 -3.8059 -0.2383 -0.016087 0.00300465 0.000861824 -0.1091 -2.1688 -0.1362 2.98177e-015 -1.98785e-015 -0 -0.6151 -8.0947 -3.5641 2.71838e-014 -5.96354e-015 -1.59028e-015 -0.4882 -2.341 -0.6462 -0.0126022 0.00312528 0.00283004 -0.3575 -1.7167 -0.4742 4.72146e-006 -2.83175e-007 1.1491e-006 -1.42 -1.8761 1.4223 2.71838e-014 -5.96354e-015 -1.59028e-015 -1.1471 -3.4929 2.6334 2.72832e-014 -2.38542e-015 -1.59028e-015 -0.823 -2.3 1.6571 2.72335e-014 -3.97569e-015 -0 -2.2603 21.606 7.4023 23.3186 -1.80497 33.2832 -13.5187 -1.1334 -5.0155 -51.7486 -22.5822 0.00213198 0.0994 -28.0499 -0.2431 -14.0209 -30.1266 -3.87316 -0.0679 -23.3996 -0.1402 -32.9564 -5.20075 -3.40535 -0.7932 -9.06911 2.5189 -1.87266e-007 1.8456e-006 -1.10816e-005 0.8272 -3.3923 0.5977 -1.98626e-031 4.77083e-015 2.38542e-015 0.565 -2.3158 0.4082 -3.18055e-015 3.18055e-015 -7.95139e-016 -0.916 -9.20441 0.2193 -1.87266e-007 1.8456e-006 -1.10816e-005 -0.0117 -4.1944 -0.0248 0.0129437 0.00232423 -8.51537e-005 -0.0071 -2.3249 -0.0142 -6.36111e-015 -9.54166e-015 6.36111e-015 -0.6113 -8.7231 -2.0637 -1.87266e-007 1.8456e-006 -1.10816e-005 0.1927 -3.8059 -0.2383 0.0163378 0.00303906 -0.000868594 0.1091 -2.1688 -0.1362 -9.54166e-015 3.18055e-015 7.95139e-015 0.6151 -8.0947 -3.564 -1.87266e-007 1.8456e-006 -1.10816e-005 0.4882 -2.341 -0.6462 0.0145757 0.00368103 -0.00325531 0.3574 -1.7166 -0.4742 3.18055e-015 0 -7.95139e-016 1.4199 -1.8761 1.4221 -1.87266e-007 1.8456e-006 -1.10816e-005 1.1472 -3.4929 2.6336 -1.98626e-031 4.77083e-015 2.38542e-015 0.8229 -2.3 1.6571 -3.18055e-015 3.18055e-015 -7.95139e-016 -9.412 3.9771 -0.7758 -30.841 -47.896 -54.7739 -0.7531 -40.938 2.66454e-015 -156.618 13.7002 -173.854 3.55271e-015 -40.1986 1.77636e-015 -17.7749 27.9209 20.1677 -3.55271e-015 -4.4182 9.239 9.93865e-006 -2.45188e-007 -5.92824e-006 9.4119 3.9773 -0.7758 30.7796 -47.8181 54.8194 0.7532 -40.9383 -2.22045e-015 156.748 13.6271 173.905 0 -40.1986 -8.88178e-016 17.963 27.8502 -20.1269 3.55271e-015 -4.4182 9.239 6.36111e-015 -3.18055e-015 4.77083e-015 
